<svg width="117" height="45" viewBox="0 0 117 45" fill="none" xmlns="http://www.w3.org/2000/svg">
<path d="M101.248 37.3999H90.998V12.8499H96.248L97.498 19.2499C97.498 18.8499 97.5647 18.2499 97.698 17.4499C97.8314 16.6499 98.148 15.8666 98.648 15.0999C99.148 14.2999 99.8647 13.6166 100.798 13.0499C101.765 12.4499 103.065 12.1499 104.698 12.1499C107.065 12.1499 108.998 12.4499 110.498 13.0499C112.031 13.6166 113.231 14.3999 114.098 15.3999C114.998 16.3999 115.615 17.5499 115.948 18.8499C116.315 20.1499 116.498 21.5332 116.498 22.9999V37.3999H106.298V29.0999C106.298 28.1332 106.298 27.1166 106.298 26.0499C106.298 24.9832 106.215 23.9999 106.048 23.0999C105.915 22.1999 105.665 21.4499 105.298 20.8499C104.965 20.2499 104.465 19.9499 103.798 19.9499C103.098 19.9499 102.565 20.2499 102.198 20.8499C101.831 21.4499 101.581 22.1999 101.448 23.0999C101.315 23.9999 101.248 24.9832 101.248 26.0499C101.248 27.1166 101.248 28.1332 101.248 29.0999V37.3999Z" fill="white"/>
<path d="M87.4844 12.85V37.4H77.2844V19.15H74.5844V12.85H87.4844ZM81.7344 11.5C80.9344 11.5 80.1844 11.35 79.4844 11.05C78.7844 10.75 78.1677 10.35 77.6344 9.85C77.1344 9.31667 76.7343 8.7 76.4343 8C76.1343 7.3 75.9844 6.55 75.9844 5.75C75.9844 4.95 76.1343 4.21667 76.4343 3.55C76.7343 2.85 77.1344 2.23333 77.6344 1.7C78.1677 1.16667 78.7844 0.75 79.4844 0.45C80.1844 0.15 80.9344 0 81.7344 0C82.5344 0 83.2677 0.15 83.9343 0.45C84.6343 0.75 85.251 1.16667 85.7844 1.7C86.3177 2.23333 86.7344 2.85 87.0344 3.55C87.3344 4.21667 87.4844 4.95 87.4844 5.75C87.4844 6.55 87.3344 7.3 87.0344 8C86.7344 8.7 86.3177 9.31667 85.7844 9.85C85.251 10.35 84.6343 10.75 83.9343 11.05C83.2677 11.35 82.5344 11.5 81.7344 11.5Z" fill="white"/>
<path d="M71.9859 12.85V35.45C71.9859 37.1167 71.6526 38.5333 70.9859 39.7C70.3192 40.8667 69.3859 41.8333 68.1859 42.6C66.9859 43.3667 65.5526 43.9167 63.8859 44.25C62.2526 44.6167 60.4359 44.8 58.4359 44.8V38C59.3026 38 59.9526 37.8167 60.3859 37.45C60.8526 37.1167 61.1859 36.6333 61.3859 36C61.5859 35.3333 61.6859 34.5333 61.6859 33.6C61.7192 32.6667 61.7359 31.6167 61.7359 30.45V19.15H59.0359V12.85H71.9859ZM66.1359 11.5C65.3359 11.5 64.5859 11.35 63.8859 11.05C63.2193 10.75 62.6192 10.35 62.0859 9.85C61.5526 9.31667 61.1359 8.7 60.8359 8C60.5359 7.3 60.3859 6.55 60.3859 5.75C60.3859 4.95 60.5359 4.21667 60.8359 3.55C61.1359 2.85 61.5526 2.23333 62.0859 1.7C62.6192 1.16667 63.2193 0.75 63.8859 0.45C64.5859 0.15 65.3359 0 66.1359 0C66.9359 0 67.6859 0.15 68.3859 0.45C69.0859 0.75 69.6859 1.16667 70.1859 1.7C70.7192 2.23333 71.1359 2.85 71.4359 3.55C71.7359 4.21667 71.8859 4.95 71.8859 5.75C71.8859 6.55 71.7359 7.3 71.4359 8C71.1359 8.7 70.7192 9.31667 70.1859 9.85C69.6859 10.35 69.0859 10.75 68.3859 11.05C67.6859 11.35 66.9359 11.5 66.1359 11.5Z" fill="white"/>
<path d="M46.75 12.8499H57V37.3999H51.75L51 30.9999H50.5C50.5 31.3999 50.4333 31.9999 50.3 32.7999C50.1667 33.5999 49.85 34.3999 49.35 35.1999C48.85 35.9665 48.1167 36.6499 47.15 37.2499C46.2167 37.8165 44.9333 38.0999 43.3 38.0999C40.9333 38.0999 38.9833 37.8165 37.45 37.2499C35.95 36.6499 34.75 35.8499 33.85 34.8499C32.9833 33.8499 32.3667 32.6999 32 31.3999C31.6667 30.0665 31.5 28.6832 31.5 27.2499V12.8499H41.7V21.1499C41.7 22.0832 41.7 23.0999 41.7 24.1999C41.7 25.2665 41.7667 26.2499 41.9 27.1499C42.0667 28.0499 42.3167 28.7999 42.65 29.3999C43.0167 29.9999 43.55 30.2999 44.25 30.2999C44.95 30.2999 45.4667 29.9999 45.8 29.3999C46.1667 28.7999 46.4167 28.0499 46.55 27.1499C46.6833 26.2499 46.75 25.2665 46.75 24.1999C46.75 23.0999 46.75 22.0832 46.75 21.1499V12.8499Z" fill="white"/>
<path d="M22.75 2.3999H33.55L21 37.3999H10.25L16.05 21.1999H7.95L0 2.3999H10.5L16.45 18.1499H16.95L22.75 2.3999Z" fill="white"/>
</svg>
